<!-- Generated by IcoMoon.io -->
<svg version="1.1" xmlns="http://www.w3.org/2000/svg" width="32" height="32" viewBox="0 0 32 32">
<title>every-zone</title>
<path d="M25.973 12.524c-0.902-2.588-2.831-4.77-5.291-5.99 0 0-0.001 0-0.001-0.001-1.477-0.732-3.052-1.103-4.683-1.103-2.95 0-5.689 1.193-7.714 3.358-1.843 1.97-2.858 4.531-2.858 7.213 0 1.334 0.253 2.646 0.753 3.901 1.612 4.052 5.466 6.669 9.819 6.669 5.829 0 10.572-4.742 10.572-10.57 0-1.172-0.201-2.343-0.597-3.477zM24.166 12.284l-0.559 0.176c-0.132 0.041-0.25 0.116-0.344 0.217-0.803 0.865-1.302 1.423-1.403 1.886-0.071 0.083-0.176 0.196-0.287 0.308l-1.756 0.35c-0.203 0.041-0.381 0.158-0.5 0.328-0.917 1.331-2.034 2.957-2.113 3.111-0.091 0.141-0.358 0.475-0.639 0.796-0.091-0.871-0.17-1.967-0.17-2.263 0-0.301 0-0.74-1.686-1.841l0.509-0.816c0.71-0.614 1.608-1.322 1.896-1.45 0.326-0.145 1.054-0.466 0.602-3.245l2.421-0.513c0.291-0.062 0.524-0.281 0.602-0.569l0.087-0.319c1.453 0.931 2.624 2.278 3.342 3.845zM9.083 10.285l0.495 0.491c0.031 0.031 0.065 0.060 0.1 0.084 0.266 0.188 0.551 0.418 0.744 0.594-0.208 0.412-0.505 1.132-0.946 2.434-1.378 0.861-1.632 1.373-1.511 1.871-0.006 0.285-0.169 1.252-0.343 2.115l-0.334 0.308c-0.181-0.714-0.273-1.445-0.273-2.182 0.001-2.094 0.731-4.103 2.067-5.715z"></path>
<path d="M15.999 4.636c0.439 0 0.795-0.356 0.795-0.795v-1.127l0.149 0.149c0.154 0.155 0.359 0.233 0.563 0.233s0.407-0.078 0.562-0.232c0.311-0.311 0.311-0.814 0-1.124l-1.507-1.508c-0.008-0.008-0.018-0.010-0.027-0.017-0.068-0.063-0.144-0.118-0.231-0.153-0.095-0.039-0.195-0.059-0.296-0.060-0.002 0-0.005-0.002-0.008-0.002s-0.005 0.002-0.008 0.002c-0.101 0.001-0.201 0.021-0.296 0.060-0.087 0.036-0.163 0.091-0.231 0.153-0.008 0.007-0.019 0.010-0.027 0.017v0 0l-1.507 1.507c-0.31 0.311-0.31 0.814 0 1.124 0.155 0.155 0.358 0.232 0.562 0.232s0.407-0.078 0.563-0.233l0.149-0.149v1.127c0.002 0.439 0.357 0.795 0.796 0.795z"></path>
<path d="M15.999 27.366c-0.439 0-0.795 0.355-0.795 0.795v1.127l-0.149-0.149c-0.311-0.311-0.814-0.31-1.124 0-0.311 0.311-0.311 0.814 0 1.124l1.507 1.507c0.008 0.008 0.019 0.010 0.027 0.017 0.068 0.063 0.144 0.117 0.231 0.153 0.002 0.001 0.003 0.002 0.005 0.003 0.096 0.039 0.198 0.057 0.299 0.057s0.203-0.018 0.299-0.057c0.002-0.001 0.003-0.002 0.005-0.003 0.087-0.036 0.163-0.091 0.231-0.153 0.008-0.008 0.019-0.010 0.027-0.017v0 0l1.507-1.507c0.31-0.311 0.31-0.813 0-1.124-0.311-0.31-0.814-0.31-1.124 0l-0.149 0.149v-1.127c0-0.439-0.356-0.795-0.795-0.795z"></path>
<path d="M8.172 5.248c0-0.439-0.356-0.795-0.795-0.795h-2.131c-0.002 0-0.005 0.002-0.008 0.002-0.101 0.001-0.201 0.021-0.296 0.060-0.091 0.037-0.17 0.094-0.241 0.16-0.005 0.005-0.013 0.006-0.017 0.011-0.008 0.008-0.011 0.019-0.018 0.028-0.062 0.068-0.116 0.144-0.153 0.23-0.040 0.098-0.061 0.2-0.061 0.304v2.129c0 0.439 0.356 0.795 0.795 0.795s0.795-0.356 0.795-0.795v-0.211l0.798 0.797c0.155 0.155 0.358 0.232 0.562 0.232s0.407-0.078 0.563-0.233c0.31-0.311 0.31-0.814 0-1.124l-0.796-0.795h0.211c0.438 0.001 0.794-0.354 0.794-0.794z"></path>
<path d="M23.826 26.753c0 0.439 0.355 0.795 0.795 0.795h2.131c0.103 0 0.207-0.020 0.304-0.060 0.194-0.082 0.349-0.236 0.43-0.43 0.040-0.098 0.061-0.201 0.061-0.304v-2.13c0-0.439-0.356-0.795-0.795-0.795s-0.795 0.355-0.795 0.795v0.211l-0.798-0.798c-0.311-0.311-0.813-0.311-1.124 0s-0.311 0.813 0 1.124l0.798 0.798h-0.213c-0.439 0-0.795 0.356-0.795 0.795z"></path>
<path d="M0.035 16.189c0.009 0.037 0.007 0.076 0.021 0.111 0.001 0.002 0.002 0.003 0.003 0.005 0.040 0.095 0.097 0.181 0.168 0.253 0.001 0.002 0.002 0.003 0.002 0.005v0c0 0 0 0 0.001 0l1.505 1.507c0.155 0.155 0.358 0.233 0.563 0.233s0.407-0.078 0.562-0.232c0.311-0.31 0.311-0.812 0.001-1.124l-0.151-0.151h1.128c0.439 0 0.795-0.355 0.795-0.795s-0.356-0.795-0.795-0.795h-1.127l0.149-0.149c0.311-0.311 0.311-0.813 0-1.124s-0.813-0.311-1.124 0l-1.505 1.505c-0.073 0.073-0.132 0.161-0.172 0.258-0.001 0.002-0.002 0.003-0.003 0.005-0.011 0.028-0.009 0.057-0.017 0.085-0.020 0.070-0.041 0.141-0.041 0.214-0.002 0.064 0.020 0.126 0.035 0.189z"></path>
<path d="M31.958 15.787c-0.008-0.029-0.006-0.058-0.017-0.085-0.001-0.002-0.002-0.003-0.003-0.005-0.041-0.097-0.099-0.184-0.172-0.258l-1.505-1.505c-0.311-0.311-0.813-0.311-1.124 0s-0.311 0.813 0 1.124l0.149 0.149h-1.128c-0.439 0-0.795 0.356-0.795 0.795s0.356 0.795 0.795 0.795h1.13l-0.151 0.15c-0.31 0.311-0.31 0.813 0.001 1.124 0.155 0.155 0.358 0.232 0.562 0.232s0.407-0.079 0.563-0.233l1.505-1.507c0 0 0 0 0.001-0.002v0c0.001 0 0.002-0.002 0.003-0.004 0.072-0.072 0.128-0.157 0.168-0.253 0.001-0.002 0.002-0.003 0.003-0.005 0.014-0.034 0.013-0.074 0.021-0.11 0.017-0.063 0.037-0.124 0.037-0.189-0.001-0.072-0.022-0.142-0.042-0.212z"></path>
<path d="M5.246 23.829c-0.439 0-0.795 0.355-0.795 0.795v2.13c0 0.103 0.021 0.207 0.061 0.304 0.081 0.193 0.235 0.348 0.43 0.43 0.098 0.041 0.2 0.060 0.304 0.060h2.131c0.439 0 0.795-0.355 0.795-0.795s-0.356-0.795-0.795-0.795h-0.213l0.798-0.798c0.311-0.311 0.311-0.813 0-1.124s-0.813-0.311-1.124 0l-0.798 0.797v-0.211c0-0.439-0.355-0.794-0.795-0.794z"></path>
<path d="M24.036 7.963c0.155 0.155 0.358 0.233 0.562 0.233s0.407-0.078 0.562-0.233l0.798-0.797v0.213c0 0.439 0.356 0.795 0.795 0.795v0c0.439 0 0.795-0.356 0.795-0.795l-0.001-2.13c0-0.005-0.002-0.009-0.002-0.014-0.002-0.099-0.020-0.197-0.059-0.289-0.080-0.195-0.235-0.35-0.43-0.43-0.097-0.041-0.199-0.061-0.304-0.061v0h-2.13c-0.439 0-0.795 0.356-0.795 0.795s0.355 0.795 0.795 0.795h0.211l-0.796 0.796c-0.311 0.309-0.311 0.813-0.001 1.123z"></path>
</svg>
