<!-- Generated by IcoMoon.io -->
<svg version="1.1" xmlns="http://www.w3.org/2000/svg" width="32" height="32" viewBox="0 0 32 32">
<title>france</title>
<path fill="#ffce00" d="M32 16c0 8.837-7.163 16-16 16s-16-7.163-16-16c0-8.837 7.163-16 16-16s16 7.163 16 16z"></path>
<path fill="#ffa300" d="M32 16c0-1.556-0.222-3.060-0.636-4.482l-3.379-3.379-23.375 15.13 8.464 8.464c0.949 0.175 1.927 0.267 2.927 0.267 8.837 0 16-7.163 16-16z"></path>
<path fill="#fff" d="M27.985 23.269c-7.792 4.236-15.584-4.236-23.375 0 0-5.043 0-10.086 0-15.13 7.792-4.236 15.584 4.236 23.375 0z"></path>
<path fill="#fff" d="M12.041 7.136v15.13c2.769 0.453 5.538 1.491 8.308 1.972v-15.13c-2.769-0.481-5.538-1.519-8.308-1.972z"></path>
<path fill="#7584f2" d="M12.212 22.294v-15.13c-2.534-0.436-5.069-0.403-7.603 0.975v15.13c2.534-1.378 5.069-1.411 7.603-0.975z"></path>
<path fill="#f92814" d="M20.154 9.073v15.13c2.61 0.478 5.22 0.485 7.83-0.934 0-5.043 0-10.086 0-15.13-2.61 1.419-5.22 1.412-7.83 0.934z"></path>
<path fill="#e9edf5" d="M16 23.188c1.45 0.393 2.899 0.797 4.349 1.049v-15.13c-1.45-0.252-2.899-0.656-4.349-1.049z"></path>
</svg>
