<!-- Generated by IcoMoon.io -->
<svg version="1.1" xmlns="http://www.w3.org/2000/svg" width="32" height="32" viewBox="0 0 32 32">
<title>star-outline</title>
<path d="M7.162 31.333c-0.351 0-0.699-0.109-0.996-0.324-0.553-0.401-0.812-1.091-0.661-1.756l2.059-9.068-6.982-6.123c-0.513-0.448-0.709-1.158-0.499-1.807 0.211-0.648 0.784-1.107 1.463-1.169l9.238-0.839 3.652-8.547c0.269-0.628 0.883-1.033 1.564-1.033s1.295 0.406 1.564 1.032l3.652 8.548 9.236 0.839c0.68 0.061 1.253 0.521 1.464 1.169s0.016 1.359-0.497 1.807l-6.982 6.121 2.059 9.068c0.151 0.667-0.108 1.356-0.661 1.756-0.552 0.4-1.288 0.431-1.869 0.081l-7.966-4.76-7.966 4.763c-0.269 0.16-0.569 0.241-0.872 0.241zM16 24.278c0.303 0 0.603 0.081 0.872 0.241l7.518 4.496-1.943-8.559c-0.139-0.609 0.068-1.245 0.539-1.657l6.592-5.781-8.722-0.792c-0.628-0.057-1.168-0.452-1.413-1.031l-3.443-8.066-3.447 8.067c-0.243 0.575-0.783 0.97-1.409 1.027l-8.723 0.792 6.592 5.781c0.472 0.413 0.679 1.048 0.539 1.659l-1.941 8.559 7.518-4.495c0.269-0.16 0.569-0.241 0.872-0.241zM10.713 10.412s0 0.001-0.001 0.003zM21.284 10.409l0.001 0.003c0-0.001 0-0.001-0.001-0.003z"></path>
</svg>
