<!-- Generated by IcoMoon.io -->
<svg version="1.1" xmlns="http://www.w3.org/2000/svg" width="32" height="32" viewBox="0 0 32 32">
<title>star-filled</title>
<path fill="#ffc107" d="M31.224 12.418c-0.2-0.62-0.749-1.059-1.4-1.119l-8.835-0.803-3.494-8.177c-0.257-0.599-0.844-0.985-1.496-0.985s-1.239 0.388-1.496 0.988l-3.493 8.176-8.836 0.803c-0.649 0.059-1.199 0.497-1.399 1.117-0.201 0.62-0.015 1.299 0.476 1.728l6.679 5.856-1.97 8.674c-0.144 0.637 0.104 1.296 0.634 1.68 0.282 0.208 0.617 0.312 0.952 0.312 0.289 0 0.577-0.077 0.835-0.232l7.619-4.556 7.617 4.555c0.557 0.334 1.26 0.305 1.788-0.077 0.529-0.384 0.777-1.043 0.633-1.68l-1.969-8.673 6.679-5.856c0.491-0.429 0.677-1.108 0.476-1.729z"></path>
<path fill="#000" d="M7.164 31.333c-0.352 0-0.7-0.109-0.997-0.324-0.553-0.4-0.812-1.089-0.661-1.756l2.059-9.067-6.982-6.123c-0.513-0.449-0.709-1.157-0.499-1.807 0.211-0.648 0.784-1.108 1.463-1.171l9.239-0.839 3.651-8.547c0.269-0.628 0.883-1.033 1.564-1.033s1.295 0.406 1.564 1.032l3.651 8.548 9.238 0.839c0.68 0.061 1.253 0.521 1.464 1.169 0.211 0.649 0.016 1.359-0.499 1.807l-6.98 6.121 2.059 9.067c0.151 0.667-0.108 1.356-0.661 1.756-0.551 0.399-1.285 0.432-1.868 0.083l-7.967-4.76-7.966 4.763c-0.269 0.161-0.569 0.241-0.871 0.241zM16 24.278c0.303 0 0.603 0.081 0.872 0.241l7.518 4.496-1.943-8.559c-0.139-0.611 0.068-1.245 0.539-1.657l6.592-5.783-8.722-0.792c-0.625-0.056-1.167-0.449-1.412-1.029l-3.444-8.066-3.447 8.067c-0.244 0.577-0.785 0.971-1.412 1.027l-8.72 0.792 6.592 5.783c0.472 0.412 0.678 1.048 0.539 1.659l-1.943 8.559 7.518-4.496c0.271-0.16 0.571-0.241 0.873-0.241zM10.713 10.414v0.001zM21.285 10.41v0.001s0 0 0-0.001z"></path>
</svg>
