<?xml version="1.0" encoding="iso-8859-1"?>
<!-- Generator: Adobe Illustrator 16.0.0, SVG Export Plug-In . SVG Version: 6.00 Build 0)  -->
<!DOCTYPE svg PUBLIC "-//W3C//DTD SVG 1.1//EN" "http://www.w3.org/Graphics/SVG/1.1/DTD/svg11.dtd">
<svg version="1.1" id="Capa_1" xmlns="http://www.w3.org/2000/svg" xmlns:xlink="http://www.w3.org/1999/xlink" x="0px" y="0px"
	 width="40.269px" height="40.268px" viewBox="0 0 40.269 40.268" style="enable-background:new 0 0 40.269 40.268;"
	 xml:space="preserve">
<g>
	<g>
		<path d="M32.684,15.76c-1.135-3.257-3.562-6.003-6.658-7.538c0,0-0.001,0-0.001-0.001c-1.858-0.921-3.841-1.388-5.893-1.388
			c-3.712,0-7.159,1.501-9.707,4.226c-2.319,2.479-3.596,5.702-3.596,9.077c0,1.679,0.318,3.33,0.947,4.909
			c2.028,5.099,6.878,8.392,12.356,8.392c7.335,0,13.303-5.967,13.303-13.301C33.435,18.661,33.182,17.188,32.684,15.76z
			 M30.41,15.458l-0.703,0.221c-0.166,0.052-0.314,0.146-0.433,0.273c-1.011,1.088-1.638,1.791-1.766,2.373
			c-0.089,0.104-0.222,0.247-0.361,0.387l-2.21,0.44c-0.256,0.051-0.48,0.199-0.629,0.413c-1.154,1.675-2.559,3.721-2.659,3.915
			c-0.115,0.177-0.451,0.598-0.804,1.002c-0.115-1.096-0.214-2.475-0.214-2.848c0-0.379,0-0.931-2.122-2.317l0.641-1.027
			c0.893-0.773,2.024-1.664,2.386-1.824c0.41-0.182,1.326-0.587,0.757-4.084l3.046-0.645c0.366-0.078,0.659-0.354,0.757-0.716
			l0.109-0.401C28.034,11.792,29.507,13.487,30.41,15.458z M11.43,12.942l0.623,0.618c0.039,0.039,0.082,0.075,0.126,0.106
			c0.335,0.237,0.693,0.526,0.936,0.748c-0.262,0.518-0.636,1.424-1.19,3.063c-1.734,1.083-2.054,1.728-1.901,2.354
			c-0.007,0.359-0.213,1.576-0.432,2.661l-0.42,0.388c-0.228-0.898-0.343-1.818-0.343-2.746C8.83,17.499,9.749,14.971,11.43,12.942z
			"/>
		<path d="M20.133,5.833c0.552,0,1-0.448,1-1V3.415l0.188,0.188c0.194,0.195,0.452,0.293,0.708,0.293s0.512-0.098,0.707-0.292
			c0.391-0.391,0.391-1.024,0-1.415L20.84,0.292l0,0l0,0c-0.01-0.01-0.023-0.013-0.034-0.022c-0.085-0.079-0.181-0.148-0.291-0.193
			c-0.12-0.049-0.246-0.074-0.373-0.075C20.139,0.002,20.136,0,20.132,0s-0.006,0.002-0.01,0.002
			c-0.127,0.001-0.253,0.026-0.373,0.075c-0.109,0.045-0.205,0.114-0.291,0.193c-0.01,0.009-0.024,0.012-0.034,0.022l0,0l0,0
			l-1.896,1.896c-0.39,0.391-0.39,1.024,0,1.415c0.195,0.195,0.451,0.292,0.707,0.292s0.512-0.098,0.708-0.293l0.188-0.188v1.418
			C19.133,5.385,19.58,5.833,20.133,5.833z"/>
		<path d="M20.133,34.436c-0.552,0-1,0.447-1,1v1.418l-0.188-0.188c-0.391-0.391-1.024-0.39-1.415,0
			c-0.391,0.392-0.391,1.024,0,1.415l1.896,1.896l0,0l0,0c0.01,0.01,0.024,0.013,0.034,0.022c0.086,0.079,0.181,0.147,0.291,0.192
			c0.002,0.001,0.004,0.003,0.006,0.004c0.121,0.049,0.249,0.072,0.376,0.072s0.256-0.023,0.376-0.072
			c0.002-0.001,0.004-0.003,0.006-0.004c0.109-0.045,0.205-0.114,0.291-0.192c0.01-0.01,0.024-0.013,0.034-0.022l0,0l0,0
			l1.896-1.896c0.39-0.391,0.39-1.023,0-1.415c-0.392-0.39-1.024-0.39-1.415,0l-0.188,0.188v-1.418
			C21.133,34.883,20.685,34.436,20.133,34.436z"/>
		<path d="M10.283,6.604c0-0.552-0.448-1-1-1H6.601c-0.003,0-0.006,0.002-0.01,0.002C6.464,5.607,6.338,5.632,6.218,5.681
			C6.104,5.728,6.004,5.799,5.915,5.882C5.909,5.888,5.899,5.89,5.893,5.896c-0.01,0.01-0.014,0.024-0.023,0.035
			c-0.078,0.085-0.146,0.181-0.192,0.29c-0.05,0.123-0.077,0.252-0.077,0.383v2.679c0,0.552,0.448,1,1,1c0.552,0,1-0.448,1-1V9.017
			l1.004,1.003c0.195,0.195,0.451,0.292,0.707,0.292c0.256,0,0.512-0.098,0.708-0.293c0.39-0.391,0.39-1.024,0-1.415L9.018,7.603
			h0.266C9.835,7.604,10.283,7.157,10.283,6.604z"/>
		<path d="M29.982,33.665c0,0.553,0.447,1,1,1h2.682c0.13,0,0.26-0.025,0.382-0.076c0.244-0.103,0.439-0.297,0.541-0.541
			c0.05-0.123,0.077-0.253,0.077-0.383v-2.68c0-0.553-0.448-1-1-1s-1,0.447-1,1v0.266l-1.004-1.004
			c-0.392-0.391-1.023-0.391-1.414,0s-0.391,1.023,0,1.414l1.004,1.004h-0.268C30.43,32.665,29.982,33.113,29.982,33.665z"/>
		<path d="M0.044,20.371c0.011,0.046,0.009,0.095,0.027,0.14c0.001,0.002,0.003,0.004,0.004,0.006
			c0.05,0.119,0.122,0.228,0.212,0.318c0.001,0.002,0.002,0.004,0.003,0.006l0,0c0,0,0,0,0.001,0l1.894,1.896
			c0.195,0.195,0.451,0.293,0.708,0.293c0.256,0,0.512-0.098,0.707-0.292c0.391-0.39,0.391-1.022,0.001-1.414l-0.19-0.19h1.42
			c0.552,0,1-0.447,1-1c0-0.552-0.448-1-1-1H3.413l0.188-0.188c0.391-0.391,0.391-1.023,0-1.414c-0.391-0.391-1.023-0.391-1.414,0
			l-1.894,1.894c-0.092,0.092-0.166,0.203-0.216,0.325c-0.001,0.002-0.003,0.004-0.004,0.006c-0.014,0.035-0.011,0.072-0.021,0.107
			C0.027,19.952,0,20.041,0,20.133C-0.002,20.213,0.025,20.292,0.044,20.371z"/>
		<path d="M40.215,19.865c-0.01-0.036-0.007-0.073-0.021-0.107c-0.001-0.002-0.003-0.004-0.004-0.006
			c-0.052-0.122-0.124-0.232-0.217-0.325l-1.894-1.894c-0.391-0.391-1.023-0.391-1.414,0s-0.391,1.023,0,1.414l0.188,0.188h-1.42
			c-0.552,0-1,0.448-1,1c0,0.551,0.448,1,1,1h1.422l-0.19,0.189c-0.39,0.391-0.39,1.023,0.001,1.414
			c0.195,0.195,0.451,0.292,0.707,0.292s0.512-0.099,0.708-0.293l1.894-1.896c0,0,0,0,0.001-0.002l0,0
			c0.001,0,0.003-0.002,0.004-0.005c0.09-0.091,0.161-0.198,0.212-0.319c0.001-0.002,0.003-0.004,0.004-0.006
			c0.018-0.043,0.016-0.093,0.026-0.139c0.021-0.079,0.046-0.156,0.046-0.238C40.267,20.042,40.24,19.953,40.215,19.865z"/>
		<path d="M6.601,29.985c-0.552,0-1,0.447-1,1v2.68c0,0.13,0.027,0.26,0.077,0.383c0.102,0.243,0.296,0.438,0.541,0.541
			c0.123,0.051,0.252,0.076,0.382,0.076h2.682c0.552,0,1-0.447,1-1c0-0.552-0.448-1-1-1H9.015l1.004-1.004
			c0.391-0.391,0.391-1.023,0-1.414c-0.391-0.391-1.023-0.391-1.414,0L7.601,31.25v-0.266C7.601,30.432,7.154,29.985,6.601,29.985z"
			/>
		<path d="M30.246,10.02c0.195,0.195,0.451,0.293,0.707,0.293s0.512-0.098,0.707-0.293l1.004-1.003v0.268c0,0.552,0.448,1,1,1l0,0
			c0.552,0,1-0.448,1-1l-0.001-2.68c0-0.006-0.003-0.011-0.003-0.018c-0.002-0.124-0.025-0.248-0.074-0.364
			c-0.101-0.245-0.296-0.44-0.541-0.541c-0.122-0.051-0.251-0.077-0.382-0.077l0,0h-2.68c-0.553,0-1,0.448-1,1c0,0.552,0.447,1,1,1
			h0.266l-1.002,1.002C29.855,8.996,29.855,9.63,30.246,10.02z"/>
	</g>
</g>
<g>
</g>
<g>
</g>
<g>
</g>
<g>
</g>
<g>
</g>
<g>
</g>
<g>
</g>
<g>
</g>
<g>
</g>
<g>
</g>
<g>
</g>
<g>
</g>
<g>
</g>
<g>
</g>
<g>
</g>
</svg>
