<svg id="Capa_1" enable-background="new 0 0 512 512" height="512" viewBox="0 0 512 512" width="512" xmlns="http://www.w3.org/2000/svg"><g><g><g><g><g><g><g><g><g><circle cx="256" cy="256" fill="#ffce00" r="256"/></g></g></g></g></g></g></g></g><path d="m512 256c0-24.892-3.553-48.954-10.179-71.707l-54.068-54.068-374.008 242.077 135.425 135.424c15.183 2.807 30.835 4.274 46.83 4.274 141.385 0 256-114.615 256-256z" fill="#ffa300"/><g><path d="m447.754 372.302c-124.669 67.781-249.339-67.781-374.008 0 0-80.692 0-161.384 0-242.076 124.669-67.781 249.339 67.781 374.008 0z" fill="#fff"/></g><g><path d="m192.659 114.172v242.076c44.308 7.254 88.615 23.854 132.923 31.555v-242.076c-44.308-7.701-88.615-24.3-132.923-31.555z" fill="#fff"/></g><g><g><path d="m195.392 356.705v-242.076c-40.549-6.984-81.098-6.449-121.647 15.597v242.076c40.549-22.046 81.098-22.581 121.647-15.597z" fill="#7584f2"/></g><g><path d="m322.472 145.176v242.076c41.761 7.642 83.521 7.754 125.282-14.951 0-80.692 0-161.384 0-242.076-41.761 22.705-83.521 22.594-125.282 14.951z" fill="#f92814"/></g><path d="m256 371.013c23.194 6.291 46.388 12.759 69.582 16.79v-242.076c-23.194-4.031-46.388-10.499-69.582-16.79z" fill="#e9edf5"/></g></g></svg>